<?xml version="1.0" encoding="iso-8859-1"?>
<!-- Generator: Adobe Illustrator 19.0.0, SVG Export Plug-In . SVG Version: 6.00 Build 0)  -->
<svg version="1.1" id="Capa_1" xmlns="http://www.w3.org/2000/svg" xmlns:xlink="http://www.w3.org/1999/xlink" x="0px" y="0px"
	 viewBox="0 0 480.054 480.054" style="enable-background:new 0 0 480.054 480.054;" xml:space="preserve">
<g>
	<g>
		<path d="M346.643,36.333C316.466,9.065,275.973-3.822,235.587,0.989c-1.928,0.216-3.808,0.616-5.72,0.912
			c-0.429,0.033-0.854,0.1-1.272,0.2c-64.589,11.533-113.569,64.707-119.768,130.024c-4.791,45.294,11.442,90.286,44.048,122.088
			c22.199,20.936,34.895,50.023,35.152,80.536v1.304c0,4.418,3.582,8,8,8h8v56c-4.418,0-8,3.582-8,8v64c0,4.418,3.582,8,8,8h96
			c4.418,0,8-3.582,8-8v-64c0-4.418-3.582-8-8-8v-56h8c4.418,0,8-3.582,8-8v-1.328c0.295-30.314,12.838-59.221,34.776-80.144
			c29.114-28.006,45.461-66.731,45.224-107.128C396.124,105.075,378.163,64.661,346.643,36.333z M236.467,17.069
			c0.312,0,0.616-0.12,0.928-0.152c10.055-1.127,20.209-1.06,30.248,0.2l22.528,44.896c11.734,23.529,17.847,49.46,17.856,75.752
			c0,1.024-0.064,2.032-0.08,3.056l-6.256,6.256c-27.448,27.382-71.88,27.382-99.328,0l-6.256-6.224c0-1.024-0.08-2.032-0.08-3.056
			c0.032-26.187,6.127-52.011,17.808-75.448L236.467,17.069z M268.027,302.341v25.712h-32v-25.712
			c0.041-26.379-5.608-52.458-16.56-76.456l-8.312-18.288c-6.224-13.646-10.591-28.065-12.984-42.872
			c31.492,25.172,76.22,25.172,107.712,0c-2.393,14.807-6.76,29.226-12.984,42.872l-8.312,18.288
			C273.635,249.884,267.986,275.962,268.027,302.341z M284.027,344.053v56h-64v-56H284.027z M124.707,133.702
			c5.031-52.622,41.255-97.036,91.789-112.546l-16.973,34.01c-12.788,25.659-19.461,53.931-19.496,82.6
			c0,0.968,0.064,1.928,0.08,2.896l-5.736,5.736c-13.713,13.626-35.58,14.471-50.304,1.944
			C124.022,143.454,124.235,138.567,124.707,133.702z M203.851,328.053c-1.996-32.456-16.228-62.946-39.824-85.32v0.016
			c-20.485-19.963-33.897-46.066-38.2-74.344c18.406,8.448,40.01,5.739,55.76-6.992c2.323,18.253,7.38,36.052,15,52.8l8.312,18.288
			c10.005,21.922,15.165,45.743,15.128,69.84v25.712H203.851z M228.027,464.053h-16v-16h16V464.053z M228.027,432.053h-16v-16h16
			V432.053z M260.027,464.053h-16v-16h16V464.053z M260.027,432.053h-16v-16h16V432.053z M292.027,464.053h-16v-16h16V464.053z
			 M292.027,432.053h-16v-16h16V432.053z M339.691,243.062c-23.358,22.374-37.45,52.711-39.48,84.992h-16.184v-25.712
			c-0.036-24.094,5.124-47.913,15.128-69.832l8.312-18.288c7.619-16.748,12.673-34.547,14.992-52.8
			c15.765,12.743,37.391,15.447,55.808,6.976C373.97,196.851,360.411,223.093,339.691,243.062z M329.683,146.398l-5.736-5.736
			c0-1.032,0.08-2.056,0.08-3.088c-0.031-28.715-6.724-57.03-19.552-82.72l-16.864-33.6c17.943,5.302,34.481,14.53,48.416,27.016
			c28.11,25.295,44.113,61.368,44,99.184c0,0.296-0.04,0.592-0.04,0.896C365.259,160.87,343.396,160.022,329.683,146.398z"/>
	</g>
</g>
<g>
	<g>
		<rect x="348.027" y="368.053" width="16" height="16"/>
	</g>
</g>
<g>
	<g>
		<rect x="364.027" y="352.053" width="16" height="16"/>
	</g>
</g>
<g>
	<g>
		<rect x="380.027" y="368.053" width="16" height="16"/>
	</g>
</g>
<g>
	<g>
		<rect x="396.027" y="352.053" width="16" height="16"/>
	</g>
</g>
<g>
	<g>
		<rect x="412.027" y="336.053" width="16" height="16"/>
	</g>
</g>
<g>
	<g>
		<rect x="428.027" y="352.053" width="16" height="16"/>
	</g>
</g>
<g>
	<g>
		<rect x="20.027" y="272.053" width="16" height="16"/>
	</g>
</g>
<g>
	<g>
		<rect x="36.027" y="256.053" width="16" height="16"/>
	</g>
</g>
<g>
	<g>
		<rect x="52.027" y="272.053" width="16" height="16"/>
	</g>
</g>
<g>
	<g>
		<rect x="68.027" y="288.053" width="16" height="16"/>
	</g>
</g>
<g>
	<g>
		<rect x="396.027" y="64.054" width="16" height="16"/>
	</g>
</g>
<g>
	<g>
		<rect x="412.027" y="48.054" width="16" height="16"/>
	</g>
</g>
<g>
	<g>
		<rect x="428.027" y="64.054" width="16" height="16"/>
	</g>
</g>
<g>
	<g>
		<rect x="444.027" y="80.054" width="16" height="16"/>
	</g>
</g>
<g>
	<g>
		<rect x="76.027" y="424.053" width="16" height="16"/>
	</g>
</g>
<g>
	<g>
		<rect x="92.027" y="408.053" width="16" height="16"/>
	</g>
</g>
<g>
	<g>
		<rect x="108.027" y="424.053" width="16" height="16"/>
	</g>
</g>
<g>
</g>
<g>
</g>
<g>
</g>
<g>
</g>
<g>
</g>
<g>
</g>
<g>
</g>
<g>
</g>
<g>
</g>
<g>
</g>
<g>
</g>
<g>
</g>
<g>
</g>
<g>
</g>
<g>
</g>
</svg>
