<svg style="position: absolute; width: 0; height: 0; overflow: hidden;" xmlns="http://www.w3.org/2000/svg" version="1.1" xmlns:xlink="http://www.w3.org/1999/xlink">
    <defs>
        <symbol id="icon-atom" viewBox="0 0 470 470">
            <path d="m398.559,166.02c-8.85-3.404-18.292-6.493-28.22-9.265 2.563-9.984 4.609-19.706 6.087-29.073 7.689-48.757-0.808-82.959-23.925-96.306-6.72-3.88-14.443-5.848-22.954-5.848-26.882,0-60.85,19.965-95.118,53.681-7.486-7.352-15.006-14.105-22.502-20.167-38.379-31.038-72.25-40.781-95.365-27.434-14.856,8.577-23.891,26.093-26.126,50.652-0.376,4.125 2.664,7.773 6.789,8.148 4.138,0.382 7.772-2.664 8.148-6.789 1.238-13.594 5.484-31.398 18.688-39.021 17.11-9.881 45.699-0.365 78.434,26.106 7.143,5.776 14.314,12.217 21.461,19.233-14.373,15.293-28.676,32.894-42.41,52.347-24.16,2.199-47.172,5.888-68.291,10.948-3.698-14.376-6.238-28.093-7.491-40.827-0.405-4.122-4.059-7.134-8.198-6.729-4.122,0.405-7.135,4.076-6.729,8.198 1.326,13.474 4.008,27.966 7.917,43.133-9.596,2.706-18.73,5.712-27.311,9.012-46.072,17.72-71.443,42.18-71.443,68.873s25.371,51.153 71.441,68.872c8.85,3.404 18.292,6.493 28.22,9.265-2.563,9.984-4.609,19.706-6.087,29.073-7.689,48.757 0.808,82.959 23.925,96.306 6.72,3.88 14.443,5.848 22.954,5.848 26.573,0 60.071-19.516 93.938-52.531 7.255,7.086 14.54,13.609 21.803,19.482 27.161,21.966 52.059,33.266 72.489,33.265 8.438-0.001 16.119-1.93 22.876-5.831 23.117-13.347 31.614-47.549 23.925-96.306-1.477-9.366-3.523-19.087-6.086-29.07 15.439-4.252 29.64-9.26 42.218-14.96 3.773-1.71 5.445-6.154 3.735-9.927-1.71-3.773-6.155-5.446-9.927-3.735-11.912,5.398-25.377,10.15-40.042,14.192-6.063-20.261-14.137-41.412-23.976-62.808 10.281-22.122 18.685-44.004 24.943-64.936 55.665,15.586 88.651,40.202 88.651,63.801 0,15.247-13.296,27.827-24.45,35.694-3.385,2.388-4.193,7.067-1.806,10.452 2.388,3.386 7.067,4.193 10.452,1.806 20.153-14.215 30.804-30.797 30.804-47.952 0-26.693-25.371-51.153-71.441-68.872zm-69.013-125.491c5.844,7.10543e-15 11.044,1.291 15.454,3.838 17.112,9.88 23.166,39.396 16.607,80.979-1.405,8.907-3.35,18.159-5.789,27.669-21.207-5.028-44.299-8.68-68.532-10.835-13.596-19.242-27.866-36.839-42.375-52.253 2.655-2.618 5.312-5.158 7.964-7.602 29.252-26.953 56.48-41.796 76.671-41.796zm-95.096,60.152c11.317,12.062 22.5,25.517 33.323,40.102-10.769-0.587-21.712-0.891-32.773-0.891-11.431,0-22.738,0.321-33.855,0.947 10.808-14.56 22.006-28.07 33.305-40.158zm-.053,269.657c-11.718-12.42-23.296-26.341-34.486-41.466 11.514,0.674 23.234,1.02 35.089,1.02 11.419,0 22.732-0.333 33.871-0.969-11.18,15.064-22.777,29.01-34.474,41.415zm.603-55.446c-16.115,0-31.578-0.624-46.314-1.784-8.277-12.076-16.284-24.78-23.907-37.984-7.503-12.995-14.405-26.107-20.657-39.155 6.49-13.661 13.707-27.412 21.596-41.077 7.64-13.232 15.75-26.063 24.177-38.307 14.374-1.099 29.429-1.693 45.105-1.693 15.273,0 29.956,0.564 43.994,1.609 8.434,12.267 16.59,25.185 24.349,38.623 7.85,13.597 15.034,27.279 21.5,40.873-6.219,12.942-13.091,25.957-20.56,38.894-7.625,13.207-15.72,26.015-24.13,38.239-14.716,1.158-29.83,1.762-45.153,1.762zm-65.615-3.655c-18.453-2.132-35.582-5.129-51.205-8.81 4.744-15.789 10.758-32.16 17.929-48.79 4.898,9.688 10.128,19.373 15.679,28.987 5.668,9.818 11.549,19.371 17.597,28.613zm1.19-152.829c-6.111,9.318-12.078,18.991-17.847,28.984-5.933,10.276-11.499,20.61-16.677,30.928-7.543-17.318-13.858-34.376-18.788-50.749 16.203-3.859 34.042-6.983 53.312-9.163zm-155.575,76.484c0-23.472 32.634-47.951 87.757-63.55 6.235,20.802 14.601,42.62 24.805,64.647-9.813,21.362-17.865,42.477-23.913,62.705-55.663-15.587-88.649-40.203-88.649-63.802zm125.454,194.363c-5.844,0-11.044-1.291-15.454-3.838-17.112-9.88-23.166-39.396-16.607-80.979 1.405-8.907 3.35-18.159 5.789-27.669 20.518,4.865 42.8,8.441 66.173,10.619 13.951,19.807 28.618,37.883 43.53,53.648-2.254,2.201-4.509,4.348-6.76,6.423-29.252,26.954-56.48,41.796-76.671,41.796zm220.214-84.584c6.559,41.583 0.505,71.099-16.607,80.979-17.113,9.879-45.699,0.364-78.434-26.106-6.893-5.574-13.814-11.767-20.712-18.499 14.761-15.578 29.462-33.603 43.563-53.579 23.432-2.151 45.822-5.697 66.389-10.509 2.445,9.526 4.394,18.793 5.801,27.714zm-9.83-42.153c-16.064,3.733-33.311,6.67-51.339,8.745 6.085-9.283 12.027-18.918 17.773-28.871 5.517-9.556 10.713-19.161 15.579-28.757 7.195,16.66 13.228,33.063 17.987,48.883zm-17.918-84.145c-5.152-10.259-10.688-20.532-16.587-30.749-5.818-10.078-11.859-19.878-18.077-29.348 19.355,2.146 37.276,5.243 53.564,9.081-4.955,16.493-11.302,33.623-18.9,51.016z"/>
            <path d="m235,197.392c-20.678,0-37.5,16.822-37.5,37.5s16.822,37.5 37.5,37.5 37.5-16.822 37.5-37.5-16.822-37.5-37.5-37.5zm0,60c-12.406,0-22.5-10.094-22.5-22.5s10.094-22.5 22.5-22.5 22.5,10.094 22.5,22.5-10.094,22.5-22.5,22.5z"/>
         </symbol>
         <symbol id="icon-heart-full" viewBox="0 0 32 32">
            <title>heart-full</title>
            <path d="M16.042 8.345c0 0-2-4.262-6.5-4.262-4.917 0-7.5 4.167-7.5 8.333 0 6.917 14 15.5 14 15.5s13.916-8.5 13.916-15.5c0-4.25-2.666-8.333-7.416-8.333s-6.5 4.262-6.5 4.262z"></path>
        </symbol>
        <symbol id="icon-monitor" viewBox="0 0 512 512">
            <path d="M471.24,14.054H40.749C18.281,14.054,0,32.332,0,54.803v59.224c0,4.602,3.731,8.332,8.332,8.332
			c4.602,0,8.332-3.731,8.332-8.332V54.803c0-13.281,10.805-24.085,24.085-24.085h430.49c13.287,0,24.096,10.805,24.096,24.085
			v284.412h-32.462v-103.01c0-16.17-13.155-29.324-29.324-29.324H312.226c-16.17,0-29.324,13.155-29.324,29.324v159.036H40.749
			c-13.28,0-24.085-10.805-24.085-24.085v-15.275H263.46c4.602,0,8.332-3.731,8.332-8.332c0-4.602-3.731-8.332-8.332-8.332H16.664
			V141.801c0-4.602-3.731-8.332-8.332-8.332C3.731,133.469,0,137.2,0,141.801v229.354c0,22.47,18.281,40.749,40.749,40.749h142.787
			l-20.495,47.948h-40.027c-4.602,0-8.332,3.731-8.332,8.332c0,4.602,3.731,8.332,8.332,8.332h45.526h92.856h1.111
			c4.602,0,8.332-3.731,8.332-8.332c0-4.602-3.731-8.332-8.332-8.332h-1.111h-80.233l14.241-33.317h87.497v42.086
			c0,16.17,13.155,29.324,29.324,29.324h121.323c16.17,0,29.324-13.155,29.324-29.324V355.879h32.462v15.275
			c0,9.701-5.778,18.413-14.72,22.196c-4.238,1.793-6.221,6.681-4.428,10.919c1.344,3.18,4.43,5.089,7.678,5.089
			c1.082,0,2.183-0.212,3.242-0.66c15.121-6.396,24.892-21.132,24.892-37.543V54.803C512,32.332,493.715,14.054,471.24,14.054z
			 M299.564,236.205L299.564,236.205c0.001-6.981,5.68-12.66,12.661-12.66h121.323c6.981,0,12.66,5.679,12.66,12.66V430.18H299.564
			V236.205z M446.21,468.623c0,6.98-5.679,12.66-12.661,12.66H312.226c-6.981,0-12.66-5.679-12.66-12.66v-21.779H446.21V468.623z"/>

            <path d="M262.924,368.955c-3.987-6.049-13.707-4.123-15.098,3c-0.672,3.44,0.933,7.043,3.962,8.811
			c3.025,1.765,6.959,1.424,9.621-0.855C264.589,377.189,265.22,372.441,262.924,368.955z"/>

            <path d="M380.584,460.874c-1.324-3.138-4.479-5.226-7.901-5.138c-3.412,0.087-6.483,2.309-7.633,5.519
			c-1.173,3.277-0.134,7.034,2.553,9.246c2.799,2.304,6.888,2.494,9.904,0.494C380.799,468.811,382.043,464.517,380.584,460.874z"/>

            <path d="M395.662,233.543h-45.549c-4.602,0-8.332,3.731-8.332,8.332c0,4.602,3.731,8.332,8.332,8.332h45.549
			c4.602,0,8.332-3.731,8.332-8.332C403.994,237.273,400.264,233.543,395.662,233.543z"/>
        </symbol>

        <symbol id="icon-presentation" viewBox="0 0 60 60">
            <path d="M8,16h15c0.552,0,1-0.447,1-1s-0.448-1-1-1H8c-0.552,0-1,0.447-1,1S7.448,16,8,16z"/>
            <path d="M8,13h9c0.552,0,1-0.447,1-1s-0.448-1-1-1H8c-0.552,0-1,0.447-1,1S7.448,13,8,13z"/>
            <path d="M24,18c0-0.553-0.448-1-1-1H8c-0.552,0-1,0.447-1,1s0.448,1,1,1h15C23.552,19,24,18.553,24,18z"/>
            <path d="M60,4H31V1c0-0.553-0.448-1-1-1s-1,0.447-1,1v3H0v42h27.586L15.293,58.293c-0.391,0.391-0.391,1.023,0,1.414
                C15.488,59.902,15.744,60,16,60s0.512-0.098,0.707-0.293L29,47.414V57c0,0.553,0.448,1,1,1s1-0.447,1-1v-9.586l12.293,12.293
                C43.488,59.902,43.744,60,44,60s0.512-0.098,0.707-0.293c0.391-0.391,0.391-1.023,0-1.414L32.414,46H60V4z M58,44H2V6h56V44z"/>
            <path d="M41,20h4.586L33.6,31.986l-8.293-8.293c-0.391-0.391-1.023-0.391-1.414,0l-12.6,12.6c-0.391,0.391-0.391,1.023,0,1.414
                C11.488,37.902,11.744,38,12,38s0.512-0.098,0.707-0.293L24.6,25.814l8.293,8.293c0.195,0.195,0.451,0.293,0.707,0.293
                s0.512-0.098,0.707-0.293L47,21.414V26c0,0.553,0.447,1,1,1s1-0.447,1-1v-7c0-0.13-0.026-0.26-0.077-0.382
                c-0.101-0.245-0.296-0.44-0.541-0.541C48.26,18.026,48.13,18,48,18h-7c-0.552,0-1,0.447-1,1S40.448,20,41,20z"/>
        </symbol>

        <symbol id="icon-plugin" viewBox="0 0 512 512">
            <path d="M448.801,271H497c8.284,0,15-6.716,15-15V111.4c0-8.284-6.716-15-15-15H367.4V63.2c0-34.849-28.352-63.2-63.2-63.2
                S241,28.352,241,63.2v33.2H111.4c-8.284,0-15,6.716-15,15V241H63.2C28.352,241,0,269.352,0,304.2s28.352,63.2,63.2,63.2h33.2V497
                c0,8.284,6.716,15,15,15H256c8.284,0,15-6.716,15-15v-48.2c0-18.307,14.894-33.2,33.2-33.2c18.306,0,33.2,14.894,33.2,33.2V497
                c0,8.284,6.716,15,15,15H497c8.284,0,15-6.716,15-15V352.4c0-8.284-6.716-15-15-15h-48.199c-18.308,0-33.201-14.894-33.201-33.2
                C415.6,285.894,430.493,271,448.801,271z M448.801,367.4H482V482H367.4v-33.2c0-34.849-28.352-63.2-63.2-63.2
                S241,413.951,241,448.8V482H126.4V352.4c0-8.284-6.716-15-15-15H63.2c-18.307,0-33.2-14.894-33.2-33.2
                c0-18.306,14.894-33.2,33.2-33.2h48.2c8.284,0,15-6.716,15-15V126.4H256c8.284,0,15-6.716,15-15V63.2
                c0-18.307,14.894-33.2,33.2-33.2c18.306,0,33.2,14.894,33.2,33.2v48.2c0,8.284,6.716,15,15,15H482V241h-33.199
                c-34.85,0-63.201,28.352-63.201,63.2S413.951,367.4,448.801,367.4z"/>
        </symbol>

        <symbol id="icon-settings" viewBox="0 0 512 512">
            <path d="M328.844,368.733c-5.383-3.235-10.908-6.487-16.433-9.675c1.299-11.07,1.302-22.268,0.006-33.316
			c5.546-3.2,11.068-6.45,16.425-9.671c9.02-5.42,12.78-16.856,8.744-26.603c0,0,0,0-0.001-0.001l-11.771-28.418
			c-4.037-9.744-14.777-15.175-24.993-12.63c-6.071,1.511-12.274,3.118-18.455,4.776c-6.901-8.732-14.82-16.649-23.563-23.554
			c1.658-6.182,3.266-12.388,4.778-18.461c2.545-10.211-2.885-20.955-12.629-24.992l-28.418-11.771
			c-9.744-4.038-21.183-0.281-26.605,8.741c-3.229,5.374-6.482,10.899-9.674,16.433c-11.067-1.299-22.263-1.302-33.316-0.007
			c-3.202-5.551-6.453-11.074-9.67-16.426c-5.424-9.02-16.86-12.778-26.605-8.741l-28.418,11.771
			c-9.742,4.036-15.174,14.781-12.629,24.992c1.515,6.085,3.121,12.289,4.776,18.455c-8.731,6.899-16.649,14.82-23.553,23.563
			c-6.196-1.663-12.402-3.269-18.463-4.779c-10.214-2.547-20.956,2.888-24.993,12.631L1.615,289.467
			c-4.035,9.745-0.276,21.182,8.742,26.602c5.375,3.23,10.9,6.482,16.433,9.675c-1.298,11.066-1.301,22.262-0.006,33.316
			c-5.538,3.195-11.06,6.446-16.429,9.672c-9.018,5.421-12.777,16.857-8.741,26.603l11.772,28.418
			c4.036,9.743,14.775,15.176,24.993,12.63c6.064-1.51,12.268-3.116,18.453-4.776c6.901,8.731,14.82,16.647,23.563,23.553
			c-1.66,6.189-3.267,12.395-4.778,18.461c-2.545,10.211,2.885,20.956,12.629,24.992l28.419,11.772
			c2.64,1.093,5.403,1.615,8.137,1.615c7.362,0,14.514-3.779,18.471-10.355c3.205-5.333,6.456-10.856,9.674-16.432
			c11.065,1.297,22.264,1.299,33.316,0.006c3.179,5.512,6.43,11.034,9.67,16.427c5.422,9.02,16.858,12.777,26.605,8.741
			l28.418-11.771c9.742-4.036,15.174-14.781,12.629-24.992c-1.503-6.033-3.109-12.237-4.776-18.455
			c8.729-6.899,16.648-14.819,23.554-23.562c6.178,1.657,12.384,3.263,18.46,4.777c10.211,2.547,20.956-2.884,24.993-12.63
			l11.771-28.419C341.621,385.59,337.862,374.153,328.844,368.733z M305.116,413.834c-5.837-1.462-11.787-3.008-17.703-4.602
			c-8.376-2.253-17.215,0.692-22.519,7.507c-6.096,7.83-13.151,14.886-20.968,20.973c-6.807,5.302-9.748,14.138-7.493,22.509
			c1.603,5.954,3.148,11.9,4.601,17.696l-26.122,10.819c-3.107-5.184-6.218-10.481-9.259-15.765
			c-4.327-7.514-12.655-11.678-21.216-10.618c-9.831,1.221-19.81,1.22-29.654-0.005c-8.585-1.066-16.906,3.098-21.232,10.614
			c-3.078,5.344-6.19,10.644-9.263,15.773l-26.122-10.82c1.461-5.827,3.007-11.776,4.603-17.701
			c2.255-8.375-0.692-17.215-7.507-22.52c-7.83-6.095-14.885-13.149-20.973-20.965c-5.3-6.809-14.136-9.749-22.51-7.495
			c-5.923,1.595-11.87,3.141-17.695,4.601l-10.82-26.121c5.16-3.094,10.459-6.205,15.765-9.26
			c7.515-4.327,11.683-12.653,10.619-21.215c-1.223-9.832-1.22-19.81,0.003-29.655c1.068-8.57-3.097-16.905-10.616-21.233
			c-5.304-3.054-10.604-6.166-15.772-9.265l10.82-26.121c5.82,1.459,11.768,3.005,17.702,4.602
			c8.372,2.256,17.212-0.692,22.52-7.507c6.095-7.83,13.15-14.886,20.965-20.972c6.808-5.301,9.749-14.138,7.494-22.512
			c-1.59-5.904-3.136-11.85-4.601-17.694l26.122-10.819c3.084,5.146,6.196,10.444,9.259,15.765
			c4.328,7.515,12.663,11.689,21.216,10.618c9.827-1.223,19.804-1.223,29.657,0.005c8.575,1.068,16.905-3.102,21.231-10.617
			c3.053-5.304,6.166-10.604,9.262-15.771l26.122,10.819c-1.462,5.833-3.008,11.782-4.603,17.703
			c-2.255,8.374,0.692,17.214,7.507,22.519c7.829,6.095,14.885,13.149,20.973,20.965c5.3,6.807,14.133,9.748,22.511,7.494
			c5.919-1.594,11.865-3.14,17.694-4.601l10.819,26.121c-5.153,3.089-10.451,6.2-15.765,9.26
			c-7.515,4.327-11.684,12.654-10.619,21.216c1.223,9.827,1.221,19.806-0.005,29.657c-1.066,8.571,3.101,16.904,10.617,21.231
			c5.296,3.049,10.596,6.161,15.772,9.263L305.116,413.834z"/>

            <path d="M241.762,312.511c0,0,0,0-0.001-0.001c-16.48-39.789-62.256-58.752-102.051-42.271
			C99.922,286.721,80.958,332.501,97.44,372.29c7.983,19.276,22.997,34.287,42.271,42.272c9.637,3.991,19.763,5.987,29.889,5.987
			s20.252-1.996,29.891-5.987C239.279,398.08,258.242,352.301,241.762,312.511z M190.72,393.388c-13.618,5.641-28.617,5.64-42.239,0
			c-13.618-5.641-24.225-16.249-29.867-29.868c-11.647-28.114,1.753-60.462,29.868-72.107c6.885-2.852,14.021-4.202,21.047-4.202
			c21.667,0,42.265,12.84,51.06,34.07C232.234,349.395,218.834,381.742,190.72,393.388z"/>

            <path d="M496.553,100.936c-3.956-0.592-8.019-1.167-12.111-1.713c-2.062-6.857-4.816-13.505-8.214-19.819
			c2.504-3.275,4.972-6.556,7.357-9.779c5.295-7.161,4.529-17.317-1.78-23.623l-15.808-15.806
			c-6.309-6.31-16.465-7.075-23.624-1.778c-3.234,2.393-6.514,4.86-9.779,7.355c-6.313-3.398-12.96-6.152-19.819-8.215
			c-0.547-4.092-1.12-8.155-1.712-12.11C409.746,6.642,402.024,0,393.102,0h-22.356c-8.922,0-16.644,6.642-17.961,15.447
			c-0.591,3.953-1.165,8.017-1.712,12.11c-6.859,2.063-13.507,4.817-19.819,8.215c-3.263-2.496-6.545-4.964-9.778-7.355
			c-7.161-5.297-17.317-4.532-23.624,1.777l-15.806,15.805c-6.31,6.308-7.077,16.465-1.78,23.627
			c2.383,3.222,4.851,6.504,7.354,9.778c-3.396,6.313-6.151,12.96-8.214,19.819c-4.091,0.547-8.155,1.121-12.11,1.713
			c-8.807,1.318-15.449,9.039-15.449,17.962v22.355c0,8.922,6.64,16.644,15.447,17.962c3.956,0.592,8.019,1.167,12.111,1.713
			c2.063,6.858,4.817,13.505,8.214,19.819c-2.501,3.272-4.969,6.552-7.357,9.779c-5.294,7.159-4.529,17.317,1.78,23.622
			l15.808,15.808c6.308,6.31,16.464,7.074,23.624,1.778c3.234-2.391,6.514-4.86,9.778-7.354c6.315,3.398,12.963,6.152,19.82,8.214
			c0.545,4.091,1.12,8.155,1.712,12.111c1.318,8.806,9.04,15.448,17.962,15.448h22.356c8.922,0,16.644-6.64,17.961-15.449
			c0.591-3.956,1.165-8.019,1.712-12.111c6.858-2.061,13.505-4.817,19.819-8.215c3.263,2.496,6.545,4.964,9.778,7.356
			c7.159,5.297,17.317,4.532,23.624-1.777l15.808-15.806c6.309-6.308,7.075-16.465,1.778-23.626
			c-2.386-3.226-4.854-6.508-7.354-9.777c3.396-6.313,6.151-12.959,8.214-19.819c4.091-0.547,8.155-1.121,12.11-1.713
			c8.807-1.318,15.449-9.039,15.449-17.962v-22.355C512,109.976,505.359,102.254,496.553,100.936z M490.228,138.142
			c-3.592,0.521-7.257,1.027-10.934,1.506c-7.273,0.949-13.227,6.111-15.165,13.149c-1.857,6.739-4.552,13.242-8.009,19.328
			c-3.611,6.353-3.054,14.215,1.419,20.032c2.255,2.932,4.492,5.883,6.669,8.799l-11.404,11.405
			c-2.925-2.183-5.876-4.419-8.802-6.669c-5.814-4.475-13.678-5.028-20.032-1.421c-6.087,3.458-12.59,6.153-19.325,8.01
			c-7.042,1.94-12.204,7.894-13.15,15.165c-0.479,3.677-0.984,7.343-1.506,10.935h-16.13c-0.521-3.592-1.026-7.257-1.506-10.931
			c-0.949-7.274-6.11-13.228-13.15-15.168c-6.737-1.856-13.238-4.551-19.327-8.009c-6.354-3.61-14.218-3.055-20.031,1.419
			c-2.927,2.251-5.876,4.486-8.803,6.669l-11.404-11.405c2.177-2.919,4.413-5.868,6.671-8.803c4.47-5.815,5.027-13.677,1.417-20.03
			c-3.457-6.086-6.152-12.59-8.009-19.327c-1.939-7.04-7.892-12.201-15.165-13.15c-3.677-0.48-7.343-0.984-10.935-1.507v-16.128
			c3.592-0.521,7.257-1.027,10.934-1.506c7.273-0.949,13.227-6.111,15.165-13.149c1.857-6.738,4.551-13.241,8.009-19.328
			c3.611-6.353,3.054-14.216-1.417-20.031c-2.259-2.936-4.495-5.886-6.67-8.8l11.404-11.405c2.925,2.183,5.875,4.419,8.8,6.668
			c5.812,4.475,13.675,5.033,20.034,1.422c6.085-3.457,12.589-6.152,19.325-8.01c7.042-1.94,12.204-7.894,13.15-15.165
			c0.48-3.677,0.986-7.342,1.507-10.934h16.13c0.521,3.591,1.026,7.256,1.505,10.931c0.949,7.274,6.111,13.228,13.15,15.167
			c6.738,1.857,13.242,4.553,19.328,8.01c6.355,3.611,14.218,3.05,20.03-1.42c2.927-2.25,5.876-4.486,8.803-6.669l11.404,11.405
			c-2.175,2.915-4.411,5.866-6.67,8.803c-4.471,5.814-5.027,13.676-1.419,20.029c3.457,6.088,6.152,12.592,8.009,19.328
			c1.939,7.04,7.892,12.201,15.165,13.15c3.677,0.48,7.343,0.985,10.935,1.507V138.142z"/>

            <path d="M381.924,83.675c-25.585,0-46.401,20.815-46.401,46.401c0,25.587,20.815,46.402,46.401,46.402
			s46.401-20.815,46.401-46.402C428.325,104.49,407.51,83.675,381.924,83.675z M381.924,155.851
			c-14.211,0-25.775-11.563-25.775-25.776c0-14.213,11.563-25.775,25.775-25.775c14.212,0,25.774,11.563,25.775,25.775
			C407.699,144.288,396.136,155.851,381.924,155.851z"/>
        </symbol>

        <symbol id="icon-balloon" viewBox="0 0 480 480">
            <path d="M346.643,36.333C316.466,9.065,275.973-3.822,235.587,0.989c-1.928,0.216-3.808,0.616-5.72,0.912
			c-0.429,0.033-0.854,0.1-1.272,0.2c-64.589,11.533-113.569,64.707-119.768,130.024c-4.791,45.294,11.442,90.286,44.048,122.088
			c22.199,20.936,34.895,50.023,35.152,80.536v1.304c0,4.418,3.582,8,8,8h8v56c-4.418,0-8,3.582-8,8v64c0,4.418,3.582,8,8,8h96
			c4.418,0,8-3.582,8-8v-64c0-4.418-3.582-8-8-8v-56h8c4.418,0,8-3.582,8-8v-1.328c0.295-30.314,12.838-59.221,34.776-80.144
			c29.114-28.006,45.461-66.731,45.224-107.128C396.124,105.075,378.163,64.661,346.643,36.333z M236.467,17.069
			c0.312,0,0.616-0.12,0.928-0.152c10.055-1.127,20.209-1.06,30.248,0.2l22.528,44.896c11.734,23.529,17.847,49.46,17.856,75.752
			c0,1.024-0.064,2.032-0.08,3.056l-6.256,6.256c-27.448,27.382-71.88,27.382-99.328,0l-6.256-6.224c0-1.024-0.08-2.032-0.08-3.056
			c0.032-26.187,6.127-52.011,17.808-75.448L236.467,17.069z M268.027,302.341v25.712h-32v-25.712
			c0.041-26.379-5.608-52.458-16.56-76.456l-8.312-18.288c-6.224-13.646-10.591-28.065-12.984-42.872
			c31.492,25.172,76.22,25.172,107.712,0c-2.393,14.807-6.76,29.226-12.984,42.872l-8.312,18.288
			C273.635,249.884,267.986,275.962,268.027,302.341z M284.027,344.053v56h-64v-56H284.027z M124.707,133.702
			c5.031-52.622,41.255-97.036,91.789-112.546l-16.973,34.01c-12.788,25.659-19.461,53.931-19.496,82.6
			c0,0.968,0.064,1.928,0.08,2.896l-5.736,5.736c-13.713,13.626-35.58,14.471-50.304,1.944
			C124.022,143.454,124.235,138.567,124.707,133.702z M203.851,328.053c-1.996-32.456-16.228-62.946-39.824-85.32v0.016
			c-20.485-19.963-33.897-46.066-38.2-74.344c18.406,8.448,40.01,5.739,55.76-6.992c2.323,18.253,7.38,36.052,15,52.8l8.312,18.288
			c10.005,21.922,15.165,45.743,15.128,69.84v25.712H203.851z M228.027,464.053h-16v-16h16V464.053z M228.027,432.053h-16v-16h16
			V432.053z M260.027,464.053h-16v-16h16V464.053z M260.027,432.053h-16v-16h16V432.053z M292.027,464.053h-16v-16h16V464.053z
			 M292.027,432.053h-16v-16h16V432.053z M339.691,243.062c-23.358,22.374-37.45,52.711-39.48,84.992h-16.184v-25.712
			c-0.036-24.094,5.124-47.913,15.128-69.832l8.312-18.288c7.619-16.748,12.673-34.547,14.992-52.8
			c15.765,12.743,37.391,15.447,55.808,6.976C373.97,196.851,360.411,223.093,339.691,243.062z M329.683,146.398l-5.736-5.736
			c0-1.032,0.08-2.056,0.08-3.088c-0.031-28.715-6.724-57.03-19.552-82.72l-16.864-33.6c17.943,5.302,34.481,14.53,48.416,27.016
			c28.11,25.295,44.113,61.368,44,99.184c0,0.296-0.04,0.592-0.04,0.896C365.259,160.87,343.396,160.022,329.683,146.398z"/>
        </symbol>
    </defs>
</svg>